<svg width="100%" height="100%" viewBox="0 0 341 341" version="1.1" xmlns="http://www.w3.org/2000/svg" xmlns:xlink="http://www.w3.org/1999/xlink" xml:space="preserve" xmlns:serif="http://www.serif.com/" style="fill-rule:evenodd;clip-rule:evenodd;stroke-linejoin:round;stroke-miterlimit:2;">
    <style>
        .circles { fill: #B5B6B7; }
        @media (prefers-color-scheme: dark) {
            .circles { fill: #B5B6B7; }
        }
    </style>
    <g transform="matrix(1,0,0,1,-412.867,0)">
        <g id="focus-circles" serif:id="focus-circles" transform="matrix(1,0,0,1,-509.483,0)">
            <rect x="922.351" y="0" width="340.487" height="340.487" style="fill:none;"/>
            <g transform="matrix(536.906,0,0,536.906,917.831,312.792)">
                <path class="circles" d="M0.557,-0.409C0.557,-0.434 0.539,-0.451 0.514,-0.451C0.489,-0.451 0.471,-0.434 0.471,-0.409C0.471,-0.384 0.489,-0.367 0.514,-0.367C0.539,-0.367 0.557,-0.384 0.557,-0.409ZM0.181,-0.123C0.181,-0.148 0.163,-0.165 0.138,-0.165C0.113,-0.165 0.095,-0.148 0.095,-0.123C0.095,-0.098 0.113,-0.081 0.138,-0.081C0.163,-0.081 0.181,-0.098 0.181,-0.123ZM0.279,-0.047C0.279,-0.072 0.261,-0.089 0.236,-0.089C0.211,-0.089 0.193,-0.072 0.193,-0.047C0.193,-0.022 0.211,-0.005 0.236,-0.005C0.261,-0.005 0.279,-0.022 0.279,-0.047ZM0.136,-0.236C0.136,-0.261 0.118,-0.278 0.093,-0.278C0.068,-0.278 0.05,-0.261 0.05,-0.236C0.05,-0.211 0.068,-0.194 0.093,-0.194C0.118,-0.194 0.136,-0.211 0.136,-0.236ZM0.403,-0.033C0.403,-0.058 0.385,-0.075 0.36,-0.075C0.335,-0.075 0.317,-0.058 0.317,-0.033C0.317,-0.008 0.335,0.009 0.36,0.009C0.385,0.009 0.403,-0.008 0.403,-0.033ZM0.151,-0.357C0.151,-0.382 0.133,-0.399 0.108,-0.399C0.083,-0.399 0.065,-0.382 0.065,-0.357C0.065,-0.332 0.083,-0.315 0.108,-0.315C0.133,-0.315 0.151,-0.332 0.151,-0.357ZM0.518,-0.079C0.518,-0.104 0.5,-0.121 0.475,-0.121C0.45,-0.121 0.432,-0.104 0.432,-0.079C0.432,-0.054 0.45,-0.037 0.475,-0.037C0.5,-0.037 0.518,-0.054 0.518,-0.079ZM0.227,-0.456C0.227,-0.481 0.209,-0.498 0.184,-0.498C0.159,-0.498 0.141,-0.481 0.141,-0.456C0.141,-0.431 0.159,-0.414 0.184,-0.414C0.209,-0.414 0.227,-0.431 0.227,-0.456ZM0.591,-0.175C0.591,-0.2 0.573,-0.217 0.548,-0.217C0.523,-0.217 0.505,-0.2 0.505,-0.175C0.505,-0.15 0.523,-0.133 0.548,-0.133C0.573,-0.133 0.591,-0.15 0.591,-0.175ZM0.344,-0.498C0.344,-0.523 0.326,-0.54 0.301,-0.54C0.276,-0.54 0.258,-0.523 0.258,-0.498C0.258,-0.473 0.276,-0.456 0.301,-0.456C0.326,-0.456 0.344,-0.473 0.344,-0.498ZM0.601,-0.295C0.601,-0.32 0.583,-0.337 0.558,-0.337C0.533,-0.337 0.515,-0.32 0.515,-0.295C0.515,-0.27 0.533,-0.253 0.558,-0.253C0.583,-0.253 0.601,-0.27 0.601,-0.295ZM0.465,-0.483C0.465,-0.508 0.447,-0.525 0.422,-0.525C0.397,-0.525 0.379,-0.508 0.379,-0.483C0.379,-0.458 0.397,-0.441 0.422,-0.441C0.447,-0.441 0.465,-0.458 0.465,-0.483Z" style="fill-rule:nonzero;"/>
            </g>
        </g>
    </g>
</svg>
